<svg xmlns="http://www.w3.org/2000/svg" xmlns:xlink="http://www.w3.org/1999/xlink"><defs><style>
    .sprite-symbol-usage {display: none;}
    .sprite-symbol-usage:target {display: inline;}
  </style><symbol viewBox="0 0 384 512" id="angle-double-left"><path d="M20.2 247.5 167 99.5c4.7-4.7 12.3-4.7 17 0l19.8 19.8c4.7 4.7 4.7 12.3 0 17L85.3 256l118.5 119.7c4.7 4.7 4.7 12.3 0 17L184 412.5c-4.7 4.7-12.3 4.7-17 0l-146.8-148c-4.7-4.7-4.7-12.3 0-17zm160 17 146.8 148c4.7 4.7 12.3 4.7 17 0l19.8-19.8c4.7-4.7 4.7-12.3 0-17L245.3 256l118.5-119.7c4.7-4.7 4.7-12.3 0-17L344 99.5c-4.7-4.7-12.3-4.7-17 0l-146.8 148c-4.7 4.7-4.7 12.3 0 17z" /></symbol><symbol viewBox="0 0 384 512" id="angle-double-right"><path d="M363.8 264.5 217 412.5c-4.7 4.7-12.3 4.7-17 0l-19.8-19.8c-4.7-4.7-4.7-12.3 0-17L298.7 256 180.2 136.3c-4.7-4.7-4.7-12.3 0-17L200 99.5c4.7-4.7 12.3-4.7 17 0l146.8 148c4.7 4.7 4.7 12.3 0 17zm-160-17L57 99.5c-4.7-4.7-12.3-4.7-17 0l-19.8 19.8c-4.7 4.7-4.7 12.3 0 17L138.7 256 20.2 375.7c-4.7 4.7-4.7 12.3 0 17L40 412.5c4.7 4.7 12.3 4.7 17 0l146.8-148c4.7-4.7 4.7-12.3 0-17z" /></symbol><symbol viewBox="0 0 320 512" id="angle-down"><path d="M151.5 347.8 3.5 201c-4.7-4.7-4.7-12.3 0-17l19.8-19.8c4.7-4.7 12.3-4.7 17 0L160 282.7l119.7-118.5c4.7-4.7 12.3-4.7 17 0l19.8 19.8c4.7 4.7 4.7 12.3 0 17l-148 146.8c-4.7 4.7-12.3 4.7-17 0z" /></symbol><symbol viewBox="0 0 192 512" id="angle-left"><path d="M4.2 247.5 151 99.5c4.7-4.7 12.3-4.7 17 0l19.8 19.8c4.7 4.7 4.7 12.3 0 17L69.3 256l118.5 119.7c4.7 4.7 4.7 12.3 0 17L168 412.5c-4.7 4.7-12.3 4.7-17 0L4.2 264.5c-4.7-4.7-4.7-12.3 0-17z" /></symbol><symbol viewBox="0 0 192 512" id="angle-right"><path d="M187.8 264.5 41 412.5c-4.7 4.7-12.3 4.7-17 0L4.2 392.7c-4.7-4.7-4.7-12.3 0-17L122.7 256 4.2 136.3c-4.7-4.7-4.7-12.3 0-17L24 99.5c4.7-4.7 12.3-4.7 17 0l146.8 148c4.7 4.7 4.7 12.3 0 17z" /></symbol><symbol viewBox="0 0 320 512" id="angle-up"><path d="m168.5 164.2 148 146.8c4.7 4.7 4.7 12.3 0 17l-19.8 19.8c-4.7 4.7-12.3 4.7-17 0L160 229.3 40.3 347.8c-4.7 4.7-12.3 4.7-17 0L3.5 328c-4.7-4.7-4.7-12.3 0-17l148-146.8c4.7-4.7 12.3-4.7 17 0z" /></symbol><symbol viewBox="0 0 22 22" id="close"><path d="M21.9 2.2 19.7 0l-8.8 8.8L2.1 0-.1 2.2 8.7 11l-8.8 8.8L2.1 22l8.8-8.8 8.8 8.8 2.2-2.2-8.8-8.8z" fill="currentColor" /></symbol><symbol viewBox="0 0 24 24" id="facebook"><path d="M19.5 0c1.24 0 2.3.44 3.18 1.32S24 3.26 24 4.5v15c0 1.24-.44 2.3-1.32 3.18S20.74 24 19.5 24h-2.938v-9.297h3.11l.469-3.625h-3.578V8.766c0-.584.122-1.021.367-1.313.244-.292.721-.437 1.43-.437L20.265 7V3.766c-.657-.094-1.584-.141-2.782-.141-1.416 0-2.55.417-3.398 1.25s-1.274 2.01-1.274 3.531v2.672H9.688v3.625h3.124V24H4.5c-1.24 0-2.3-.44-3.18-1.32S0 20.74 0 19.5v-15c0-1.24.44-2.3 1.32-3.18S3.26 0 4.5 0z" /></symbol><symbol viewBox="0 0 24 24" id="linkedin"><path d="M3.703 20.094h3.61V9.25h-3.61zM7.547 5.906c-.01-.541-.198-.99-.563-1.343s-.849-.532-1.453-.532-1.096.177-1.476.532-.57.802-.57 1.343c0 .532.184.977.554 1.336s.852.54 1.445.54H5.5c.615 0 1.11-.18 1.484-.54.375-.36.563-.804.563-1.336zm5.36 4.873V9.25h-3.61c.031.688.031 4.302 0 10.844h3.61V14.03c0-.396.036-.687.109-.875.156-.364.39-.674.703-.93s.698-.382 1.156-.382c1.208 0 1.813.817 1.813 2.453v5.797h3.609v-6.219c0-1.604-.38-2.818-1.14-3.64C18.395 9.41 17.39 9 16.14 9c-1.398 0-2.476.593-3.235 1.779zM24 4.5v15c0 1.24-.44 2.3-1.32 3.18S20.74 24 19.5 24h-15c-1.24 0-2.3-.44-3.18-1.32S0 20.74 0 19.5v-15c0-1.24.44-2.3 1.32-3.18S3.26 0 4.5 0h15c1.24 0 2.3.44 3.18 1.32S24 3.26 24 4.5z" /></symbol><symbol viewBox="0 0 448 512" id="rss"><path d="M128.081 415.959c0 35.369-28.672 64.041-64.041 64.041S0 451.328 0 415.959s28.672-64.041 64.041-64.041 64.04 28.673 64.04 64.041zm175.66 47.25c-8.354-154.6-132.185-278.587-286.95-286.95C7.656 175.765 0 183.105 0 192.253v48.069c0 8.415 6.49 15.472 14.887 16.018 111.832 7.284 201.473 96.702 208.772 208.772.547 8.397 7.604 14.887 16.018 14.887h48.069c9.149.001 16.489-7.655 15.995-16.79zm144.249.288C439.596 229.677 251.465 40.445 16.503 32.01 7.473 31.686 0 38.981 0 48.016v48.068c0 8.625 6.835 15.645 15.453 15.999 191.179 7.839 344.627 161.316 352.465 352.465.353 8.618 7.373 15.453 15.999 15.453h48.068c9.034-.001 16.329-7.474 16.005-16.504z" /></symbol><symbol viewBox="0 0 24 24" id="twitter"><path d="M20 7.531a6.951 6.951 0 0 1-1.89.532c.708-.417 1.192-1.027 1.453-1.829a6.525 6.525 0 0 1-2.094.797C16.833 6.344 16.036 6 15.079 6c-.907 0-1.68.32-2.321.96s-.961 1.415-.961 2.321c0 .302.026.552.078.75-1.344-.073-2.604-.411-3.781-1.015s-2.177-1.412-3-2.422A3.25 3.25 0 0 0 4.64 8.25c0 1.188.474 2.099 1.421 2.734-.49-.01-1.01-.145-1.562-.406v.031c0 .782.26 1.477.781 2.086s1.162.987 1.922 1.133a3.048 3.048 0 0 1-.797.125c-.135 0-.338-.02-.61-.062.22.656.608 1.198 1.165 1.625s1.19.645 1.898.656c-1.208.937-2.567 1.406-4.078 1.406-.27 0-.531-.015-.781-.047A9.205 9.205 0 0 0 9.031 19c1.167 0 2.26-.185 3.281-.555s1.896-.864 2.626-1.484 1.356-1.333 1.882-2.14a9.43 9.43 0 0 0 1.555-5.165c0-.187-.005-.328-.016-.422A6.377 6.377 0 0 0 20 7.531zM24 4.5v15c0 1.24-.44 2.3-1.32 3.18S20.74 24 19.5 24h-15c-1.24 0-2.3-.44-3.18-1.32S0 20.74 0 19.5v-15c0-1.24.44-2.3 1.32-3.18S3.26 0 4.5 0h15c1.24 0 2.3.44 3.18 1.32S24 3.26 24 4.5z" /></symbol></defs><use id="angle-double-left-usage" xlink:href="#angle-double-left" class="sprite-symbol-usage" /><use id="angle-double-right-usage" xlink:href="#angle-double-right" class="sprite-symbol-usage" /><use id="angle-down-usage" xlink:href="#angle-down" class="sprite-symbol-usage" /><use id="angle-left-usage" xlink:href="#angle-left" class="sprite-symbol-usage" /><use id="angle-right-usage" xlink:href="#angle-right" class="sprite-symbol-usage" /><use id="angle-up-usage" xlink:href="#angle-up" class="sprite-symbol-usage" /><use id="close-usage" xlink:href="#close" class="sprite-symbol-usage" /><use id="facebook-usage" xlink:href="#facebook" class="sprite-symbol-usage" /><use id="linkedin-usage" xlink:href="#linkedin" class="sprite-symbol-usage" /><use id="rss-usage" xlink:href="#rss" class="sprite-symbol-usage" /><use id="twitter-usage" xlink:href="#twitter" class="sprite-symbol-usage" /></svg>